<svg xmlns="http://www.w3.org/2000/svg" fill-rule="evenodd" clip-rule="evenodd" enable-background="new 0 0 512 512" image-rendering="optimizeQuality" shape-rendering="geometricPrecision" text-rendering="geometricPrecision" viewBox="0 0 512 512"><defs><linearGradient id="a" x1="107.127" x2="404.873" y1="256" y2="256" gradientUnits="userSpaceOnUse"><stop offset="0" stop-color="#f071ab"/><stop offset="1" stop-color="#22abe2"/></linearGradient></defs><path fill="url(#a)" d="M415 444l-74 0c0,-1 1,-3 1,-6 0,-47 -39,-85 -86,-85 -47,0 -86,38 -86,85 0,3 1,5 1,6l-74 0c-4,0 -6,-2 -6,-6l0 -38c0,-28 9,-55 27,-76 18,-21 43,-35 69,-39 3,-1 5,0 6,2 15,20 38,32 63,32 25,0 48,-12 63,-32 1,-2 3,-3 6,-2 26,4 51,18 69,39 18,21 27,48 27,76l0 38c0,4 -2,6 -6,6zm-159 68c-41,0 -74,-33 -74,-74 0,-40 33,-73 74,-73 41,0 74,33 74,73 0,41 -33,74 -74,74zm-24 -48c-1,0 -1,0 -2,0 -2,-1 -3,-2 -4,-4l-5 -19c-1,-3 1,-7 4,-7 4,-1 7,1 8,4l3 10 46 -34c2,-2 6,-2 8,1 2,3 1,6 -1,8l-53 40c-1,1 -3,1 -4,1zm-40 -363c-28,0 -50,-23 -50,-51 0,-27 22,-50 50,-50 22,0 40,13 48,33l20 0 0 -18c0,-3 2,-6 6,-6l24 0c3,0 6,3 6,6l0 18 16 0 0 -18c0,-3 3,-6 6,-6l24 0c3,0 6,3 6,6l0 18 16 0c3,0 6,3 6,6l0 22c0,4 -3,6 -6,6l-124 0c-8,20 -26,34 -48,34zm0 -25c-14,0 -25,-12 -25,-26 0,-14 11,-25 25,-25 14,0 26,11 26,25 0,14 -12,26 -26,26zm0 -39c-7,0 -13,6 -13,13 0,8 6,14 13,14 8,0 14,-6 14,-14 0,-7 -6,-13 -14,-13zm64 254c-49,0 -89,-40 -89,-89 0,-49 40,-89 89,-89 49,0 89,40 89,89 0,49 -40,89 -89,89z"/></svg>