<svg width="220" height="220" viewBox="0 0 220 220" fill="none" xmlns="http://www.w3.org/2000/svg">
<path d="M186.836 187.644H28.4961C30.1672 177.186 36.161 168.434 44.291 163.896C47.2999 162.199 50.6123 161.084 54.095 160.676C56.2474 152.331 59.9783 144.756 64.893 138.393C74.3547 126.153 88.2185 118.436 103.667 118.436C124.935 118.436 143.191 133.073 151.119 153.989C152.12 153.873 153.132 153.784 154.156 153.784C169.136 153.784 181.268 167.616 181.268 184.665C181.268 184.838 181.268 184.983 181.256 185.132C183.262 185.611 185.141 186.478 186.836 187.644Z" fill="#EBF7F0"/>
<path opacity="0.5" d="M76.0448 151.628C79.3509 155.473 109.809 124.583 97.6822 127.828C85.5557 131.074 71.7647 146.652 76.0448 151.628Z" fill="white"/>
<path d="M150.661 187.644H200.567C199.25 185.267 196.451 186.004 193.438 185.94C192.875 184.163 191.314 184.201 187.952 184.748C192.211 180.864 190.882 177.047 183.454 179.535C191.939 167.984 178.786 165.344 176.844 165.113C174.396 164.822 163.146 166.621 169.109 178.649C161.885 175.65 159.909 179.194 165.361 185.43C160.153 185.674 153.912 186.818 150.661 187.644ZM19.4326 187.644H106.601C100.946 186.33 89.2302 184.775 83.9595 184.664C82.9744 181.556 80.2445 181.621 74.3638 182.578C81.8141 175.784 79.4896 169.109 66.4966 173.46C81.3372 153.256 58.3313 148.639 54.9339 148.235C50.6531 147.724 30.9746 150.871 41.4047 171.91C28.7693 166.666 25.3126 172.864 34.8486 183.771C25.7386 184.198 22.5062 185.267 19.4326 187.644Z" fill="#39AC6D"/>
<path fill-rule="evenodd" clip-rule="evenodd" d="M187.453 77.014C186.993 77.014 186.552 77.0969 186.145 77.2483C185.961 77.0454 185.695 76.9182 185.399 76.9182C185.262 76.9182 185.13 76.9454 185.011 76.9956C184.944 76.1285 184.22 75.4459 183.337 75.4459C182.953 75.4459 182.599 75.5746 182.316 75.7915C182.136 75.5424 181.842 75.3806 181.511 75.3806C181.455 75.3806 181.401 75.3851 181.348 75.3939C181.46 75.132 181.523 74.8439 181.523 74.5414C181.523 73.3451 180.552 72.375 179.356 72.375C179.133 72.375 178.918 72.4087 178.716 72.4712C178.558 72.1365 178.218 71.9044 177.824 71.9044L177.796 71.9048C177.8 71.8267 177.803 71.7482 177.803 71.6687C177.803 69.5183 176.06 67.7754 173.909 67.7754C171.758 67.7754 170.015 69.5182 170.015 71.6687C170.015 71.699 170.016 71.7288 170.016 71.7589C169.828 71.7113 169.632 71.686 169.429 71.686C169.026 71.686 168.647 71.7859 168.314 71.962C167.746 71.1875 166.83 70.6847 165.796 70.6847C164.074 70.6847 162.677 72.0811 162.677 73.8038C162.677 74.1424 162.732 74.4685 162.831 74.774C162.8 74.772 162.769 74.7711 162.737 74.7711C161.889 74.7711 161.201 75.4587 161.201 76.3069C161.201 76.4068 161.211 76.5044 161.229 76.5982C161.218 76.5981 161.208 76.5978 161.197 76.5978C160.718 76.5978 160.327 76.9785 160.311 77.4541C160.179 77.4289 160.041 77.4153 159.901 77.4153C159.347 77.4153 158.829 77.608 158.455 77.9608C157.458 78.9045 158.547 79.1498 159.597 79.1498H160.966H162.04H184.064H185.783H188.607C189.701 79.1498 191.264 79.3291 190.179 78.1848C189.494 77.4635 188.526 77.014 187.453 77.014ZM36.8399 45.1233C37.6444 45.1233 38.4152 45.2682 39.1279 45.533C39.4497 45.1783 39.9146 44.9558 40.4316 44.9558C40.6722 44.9558 40.9018 45.0033 41.1109 45.0911C41.2267 43.5747 42.493 42.3809 44.038 42.3809C44.7095 42.3809 45.3279 42.6062 45.8224 42.9854C46.1387 42.5498 46.6516 42.2668 47.2313 42.2668C47.3283 42.2668 47.4228 42.2747 47.5158 42.2899C47.3199 41.832 47.2109 41.3281 47.2109 40.7991C47.2109 38.707 48.9077 37.0105 51.0002 37.0105C51.3904 37.0105 51.7663 37.0694 52.1198 37.1789C52.3949 36.5933 52.9898 36.1876 53.6789 36.1876L53.7287 36.1883C53.7209 36.0518 53.7161 35.9144 53.7161 35.7755C53.7161 32.0148 56.765 28.9667 60.5258 28.9667C64.2868 28.9667 67.3354 32.0148 67.3354 35.7755C67.3354 35.8285 67.3346 35.8807 67.3335 35.9333C67.6627 35.85 68.0062 35.8057 68.3612 35.8057C69.066 35.8057 69.7289 35.9804 70.3117 36.2885C71.3042 34.9342 72.9061 34.0547 74.7137 34.0547C77.7264 34.0547 80.1686 36.4968 80.1686 39.5096C80.1686 40.1018 80.0732 40.6721 79.8997 41.2061C79.9539 41.2026 80.0084 41.2011 80.0637 41.2011C81.5479 41.2011 82.7503 42.4035 82.7503 43.8869C82.7503 44.0615 82.7331 44.2322 82.7016 44.3963C82.7201 44.3959 82.7385 44.3955 82.7582 44.3955C83.5961 44.3955 84.2793 45.0614 84.3063 45.893C84.5387 45.849 84.7788 45.8251 85.0244 45.8251C85.993 45.8251 86.8995 46.1622 87.5518 46.7791C89.297 48.4294 87.3912 48.8583 85.5559 48.8583H83.162H81.2826H42.7675H39.7609H34.8217C32.9082 48.8583 30.1752 49.1718 32.0735 47.1708C33.2712 45.9093 34.9638 45.1233 36.8399 45.1233Z" fill="#EBF7F0"/>
<path d="M85.9343 105.66C82.7849 102.435 69.3497 103.159 66.3983 104.029C63.4467 104.899 57.8896 103.934 56.2637 100.421C56.2637 100.421 57.4908 106.095 66.6829 104.93C81.2312 103.085 85.9343 105.66 85.9343 105.66ZM131.273 111.778C137.11 117.942 155.548 116.049 159.589 112.134C159.589 112.134 158.348 116.433 144.435 116.687C132.816 116.899 131.273 111.778 131.273 111.778Z" fill="#DCF4E6"/>
<path d="M118.749 80.7966L107.446 84.0955L118.749 91.7971L130.051 84.0955L118.749 80.7966Z" fill="url(#paint0_linear_174_93658)"/>
<path d="M118.749 67.8934L107.446 75.5965L118.749 83.2966L130.051 75.5965L118.749 67.8934Z" fill="#39AC6D"/>
<path d="M118.749 83.3015V91.802L107.451 84.3465V75.595L118.749 83.3015Z" fill="#39AC6D"/>
<path d="M130.05 75.595V84.3465L118.748 91.802V83.3015L130.05 75.595Z" fill="#2E8A57"/>
<path opacity="0.25" d="M111.445 79.0415L123.108 70.7985L125.687 72.5553L114.349 80.2996V88.8887L111.445 86.9826V79.0415Z" fill="#CDEEFF"/>
<path opacity="0.25" d="M126.422 78.8151L114.385 70.9051L111.81 72.6636L123.522 80.0733V88.6656L126.422 86.7578V78.8151Z" fill="#CDEEFF"/>
<path d="M136.671 54.5668C136.545 54.4552 119.647 73.9562 119.647 73.9562C119.647 73.9562 126.383 52.8936 126.225 52.8395C126.071 52.7902 118.748 74.7878 118.748 74.7878C118.748 74.7878 111.427 52.7903 111.271 52.8395C111.112 52.8937 117.845 73.9562 117.845 73.9562C117.845 73.9562 100.95 54.4554 100.825 54.5668C100.699 54.6718 100.684 54.8588 100.796 54.9868L118.371 75.4917C118.427 75.5573 118.514 75.5967 118.597 75.5967C118.647 75.5967 118.699 75.582 118.742 75.5574C118.748 75.5557 118.748 75.5557 118.748 75.5557C118.748 75.5557 118.75 75.5557 118.75 75.5574C118.798 75.582 118.848 75.5967 118.899 75.5967C118.985 75.5967 119.067 75.5574 119.126 75.4917L136.702 54.9868C136.812 54.8588 136.796 54.6718 136.671 54.5668Z" fill="#11405C"/>
<path d="M136.983 55.1049C134.694 54.4488 132.127 53.9123 129.36 53.5203C127.249 53.2234 125.021 53.0085 122.707 52.8953C121.366 52.8247 119.992 52.7902 118.597 52.7902C117.203 52.7902 115.832 52.8247 114.488 52.8953C112.174 53.0084 109.946 53.2234 107.835 53.5203C105.068 53.9123 102.5 54.4488 100.212 55.1049C101.016 45.6546 108.942 38.24 118.597 38.24C128.253 38.2401 136.179 45.6547 136.983 55.1049Z" fill="#7297EB"/>
<path d="M118.597 38.2401C116.575 38.2401 114.887 44.5244 114.488 52.8953C112.174 53.0085 109.946 53.2234 107.835 53.5204C108.726 44.8426 113.204 38.2401 118.597 38.2401ZM129.36 53.5203C127.249 53.2234 125.021 53.0085 122.707 52.8953C122.308 44.5244 120.62 38.2401 118.597 38.2401C123.991 38.2402 128.469 44.8426 129.36 53.5203Z" fill="#AFC3F3"/>
<path d="M116.348 80.3881L112.256 76.2609L109.956 77.4388L102.082 85.2438L102.633 85.8048L106.723 89.9287L107.276 90.4864L115.148 82.6781L116.348 80.3881ZM112.992 79.6238C112.751 79.3792 112.756 78.9872 112.997 78.7494C113.24 78.5049 113.629 78.5049 113.873 78.7494C114.114 78.9939 114.114 79.3875 113.87 79.627C113.627 79.8665 113.235 79.8633 112.992 79.6238Z" fill="#FCB72E"/>
<path d="M107.333 86.2739C107.384 86.2247 107.423 86.1788 107.448 86.1361C107.472 86.0934 107.485 86.0607 107.492 86.0213C107.497 85.9885 107.492 85.9556 107.48 85.9327C107.47 85.9031 107.451 85.8752 107.428 85.854C107.374 85.8014 107.308 85.785 107.224 85.7965C107.141 85.8112 107.022 85.8555 106.862 85.936C106.791 85.9721 106.719 86.0017 106.64 86.0312C106.567 86.0574 106.491 86.0771 106.414 86.0805C106.338 86.0837 106.261 86.0738 106.186 86.0509C106.109 86.0245 106.03 85.9737 105.96 85.9033C105.886 85.831 105.833 85.7474 105.802 85.6638C105.769 85.5786 105.759 85.4899 105.769 85.3948C105.778 85.3046 105.807 85.216 105.858 85.1176C105.906 85.0275 105.976 84.9306 106.065 84.847C106.173 84.7387 106.274 84.6567 106.378 84.6009C106.478 84.5453 106.565 84.5091 106.645 84.4862L106.826 84.8667C106.758 84.8912 106.688 84.9209 106.616 84.9553C106.542 84.9947 106.471 85.0473 106.394 85.1261C106.309 85.2113 106.257 85.2851 106.245 85.3442C106.23 85.4032 106.25 85.4607 106.294 85.5114C106.326 85.5361 106.358 85.5557 106.389 85.5623C106.427 85.5656 106.462 85.5656 106.503 85.5558C106.542 85.5509 106.59 85.5312 106.634 85.5131C106.68 85.4967 106.727 85.4721 106.781 85.4475C106.895 85.3934 106.995 85.3524 107.083 85.323C107.18 85.2901 107.264 85.2737 107.344 85.2737C107.423 85.2737 107.502 85.2867 107.574 85.3244C107.644 85.3589 107.723 85.4114 107.795 85.4869C107.944 85.6345 108.007 85.8052 107.984 85.9888C107.963 86.1759 107.849 86.3677 107.638 86.5794C107.566 86.6517 107.5 86.7073 107.436 86.7566C107.374 86.8008 107.313 86.8418 107.255 86.8713C107.2 86.9075 107.147 86.9287 107.103 86.9469C107.059 86.9631 107.019 86.9779 106.988 86.9862L106.806 86.6039C106.877 86.5826 106.958 86.5465 107.047 86.4972C107.141 86.4478 107.234 86.3723 107.333 86.2739ZM109.572 84.5843C109.495 84.5465 109.424 84.5088 109.342 84.4727C109.263 84.4334 109.188 84.3973 109.109 84.3595L108.489 84.9795C108.529 85.0568 108.565 85.1354 108.602 85.2108C108.642 85.2895 108.678 85.3684 108.715 85.4372L108.346 85.8063C108.235 85.5784 108.135 85.3634 108.041 85.1616C107.953 84.9681 107.869 84.7778 107.79 84.5973C107.713 84.4202 107.644 84.2463 107.575 84.0824C107.511 83.9167 107.451 83.7509 107.393 83.5903L107.736 83.2523C107.895 83.3081 108.058 83.3738 108.225 83.4344C108.392 83.4984 108.564 83.5706 108.742 83.6494C108.922 83.7248 109.109 83.8084 109.311 83.8986C109.508 83.9939 109.719 84.0938 109.951 84.2021L109.572 84.5843ZM107.915 83.7887C107.928 83.8182 107.949 83.8592 107.974 83.9167C107.997 83.9741 108.028 84.0364 108.058 84.1053C108.092 84.1742 108.125 84.2596 108.164 84.3415C108.204 84.4301 108.243 84.5187 108.289 84.6105L108.742 84.1611C108.648 84.1134 108.558 84.0741 108.474 84.0347C108.387 83.9937 108.309 83.9609 108.238 83.9265C108.164 83.8969 108.1 83.8674 108.046 83.8461C107.992 83.8199 107.949 83.7985 107.915 83.7887ZM110.91 82.6356L111.217 82.9422L110.159 83.997L108.569 82.4124L108.929 82.0582L110.207 83.3361L110.91 82.6356ZM111.444 82.7109L109.857 81.1296L110.932 80.0584L111.23 80.3586L110.517 81.0706L110.827 81.3822L111.462 80.7473L111.752 81.0426L111.117 81.6742L111.498 82.0548L112.269 81.2903L112.569 81.5888L111.444 82.7109Z" fill="#CA8C12"/>
<path d="M113.743 78.6135C113.814 78.5409 116.234 75.8103 118.497 75.1733C118.648 75.1308 118.971 75.5821 118.899 75.5966C116.849 76.0083 113.977 78.6977 113.91 78.8115C113.764 79.0617 113.434 78.9331 113.743 78.6135Z" fill="#CDEEFF"/>
<path d="M155.869 173.35L136.461 169.89L140.163 141.909L157.133 143.386L155.869 173.35Z" fill="#7297EB"/>
<path d="M157.133 143.386L157.904 144.046L158.468 143.502L159.996 171.543L158.494 171.886L155.869 173.35L157.133 143.386Z" fill="#7297EB"/>
<path d="M144.507 146.335C144.507 146.74 144.273 147.069 143.983 147.069C143.694 147.069 143.459 146.74 143.459 146.335C143.459 145.93 143.694 145.601 143.983 145.601C144.273 145.601 144.507 145.93 144.507 146.335ZM151.083 146.653C151.083 147.046 150.855 147.364 150.575 147.364C150.294 147.364 150.066 147.046 150.066 146.653C150.066 146.26 150.294 145.941 150.575 145.941C150.855 145.941 151.083 146.26 151.083 146.653Z" fill="#7297EB"/>
<path d="M143.694 146.317C143.499 147.461 143.304 148.605 143.109 149.748C142.942 150.731 142.726 151.722 142.69 152.721C142.625 154.517 143.495 156.033 145.157 156.768C146 157.141 146.932 157.274 147.849 157.263C148.535 157.255 149.343 157.196 149.778 156.586C150.271 155.895 149.779 155.2 149.294 154.665C148.726 154.039 147.395 153.516 147.446 152.547C147.481 151.884 147.996 151.383 148.422 150.93C148.772 150.558 149.104 150.171 149.408 149.76C149.957 149.019 150.841 147.904 150.732 146.922C150.704 146.668 150.302 146.665 150.331 146.922C150.424 147.756 149.639 148.755 149.172 149.406C148.681 150.09 148.049 150.647 147.545 151.316C147.166 151.819 146.903 152.479 147.126 153.106C147.35 153.733 147.987 154.045 148.472 154.439C148.813 154.716 149.142 155.045 149.381 155.415C149.78 156.034 149.455 156.572 148.798 156.767C147.977 157.01 146.899 156.877 146.088 156.667C144.233 156.187 143.045 154.75 143.087 152.814C143.11 151.786 143.342 150.762 143.514 149.751C143.703 148.642 143.891 147.533 144.08 146.424C144.123 146.171 143.737 146.063 143.694 146.317Z" fill="#CDEEFF"/>
<path d="M116.907 156.588L130.774 153.642L144.641 155.676L131.019 160.374L116.907 156.588Z" fill="#FCAF17"/>
<path d="M131.395 174.494L144.892 171.198L144.641 155.676L130.971 158.585L131.395 174.494Z" fill="#CA8C12"/>
<path opacity="0.5" d="M123.112 155.27L127.451 154.373L139.74 156.639L139.89 159.758L138.182 160.285L137.865 159.777L137.699 160.498L136.395 160.949L136.352 157.608L123.112 155.27Z" fill="#CDEEFF"/>
<path opacity="0.5" d="M137.877 172.917L137.869 170.495L138.706 170.333L138.891 170.628L138.987 170.215L141.177 169.593L141.434 172.046L137.877 172.917Z" fill="#CDEEFF"/>
<path d="M116.907 156.588L117.353 172.532L131.395 174.494L130.971 158.585L116.907 156.588Z" fill="#FCAF17"/>
<path d="M116.907 156.588L130.971 158.585C130.971 158.585 126.583 159.101 123.669 158.585C120.755 158.069 116.907 156.588 116.907 156.588Z" fill="#CA8C12"/>
<path d="M136.352 160.326L147.324 157.995L158.296 159.605L147.517 163.322L136.352 160.326Z" fill="#FCAF17"/>
<path d="M147.815 174.494L158.494 171.886L158.296 159.605L147.479 161.906L147.815 174.494Z" fill="#CA8C12"/>
<path opacity="0.5" d="M141.261 159.283L144.694 158.574L154.417 160.366L154.535 162.834L153.184 163.252L152.934 162.849L152.802 163.42L151.771 163.776L151.736 161.134L141.261 159.283Z" fill="#CDEEFF"/>
<path opacity="0.5" d="M152.944 173.246L152.938 171.33L153.6 171.201L153.746 171.435L153.822 171.108L155.555 170.616L155.758 172.557L152.944 173.246Z" fill="#CDEEFF"/>
<path d="M136.352 160.326L136.704 172.942L147.815 174.494L147.479 161.906L136.352 160.326Z" fill="#FCAF17"/>
<path d="M136.352 160.326L147.479 161.906C147.479 161.906 144.007 162.315 141.702 161.906C139.396 161.498 136.352 160.326 136.352 160.326Z" fill="#CA8C12"/>
<path d="M165.155 151.8V150.455H158.94L160.732 139.958H158.472L156.978 150.455H146.905L147.602 139.958H145.327L144.929 150.455H134.863L134.465 139.958H132.191L132.888 150.455H122.814L121.321 139.958H119.061L120.853 150.455H114.638V151.8H121.082L122.606 160.724H115.364V162.069H122.836L124.535 172.021H125.882L124.466 162.069H133.659L134.32 172.021H135.681L135.304 162.069H144.489L144.111 172.021H145.473L146.134 162.069H155.326L153.91 172.022H155.258L156.957 162.069H164.429V160.724H157.186L158.71 151.8H165.155ZM124.275 160.724L123.006 151.8H132.977L133.569 160.724H124.275ZM135.253 160.724L134.914 151.8H144.878L144.54 160.724H135.253ZM155.518 160.724H146.223L146.816 151.8H156.787L155.518 160.724Z" fill="#366AE2"/>
<path d="M110.654 141.359L116.22 171.561C116.453 172.825 117.555 173.743 118.84 173.743H160.951C162.236 173.743 163.338 172.825 163.571 171.561L169.136 141.359C169.438 139.722 168.181 138.212 166.516 138.212H113.275C111.61 138.212 110.353 139.722 110.654 141.359ZM116.421 140.831H163.37C165.035 140.831 166.292 142.341 165.991 143.978L161.391 168.942C161.158 170.206 160.056 171.123 158.77 171.123H121.021C119.735 171.123 118.633 170.206 118.4 168.942L113.8 143.978C113.499 142.341 114.756 140.831 116.421 140.831Z" fill="#11405C"/>
<path d="M162.962 173.584C162.962 173.584 131.796 173.588 121.279 173.589C119.285 173.589 117.565 172.194 117.152 170.243L109.253 132.895L109.19 132.628C108.862 131.235 107.622 130.249 106.191 130.242L95.4308 130.194L95.2998 132.833L105.857 132.885C106.259 132.887 106.607 133.165 106.699 133.556L115.909 173.887C112.912 174.786 110.75 177.613 110.867 180.928C111.003 184.771 114.285 187.758 118.13 187.758H147.211C147.213 187.758 147.214 187.757 147.215 187.757H149.999C150.846 187.757 151.527 187.049 151.482 186.192C151.442 185.416 150.693 184.787 149.915 184.787H147.226C147.221 184.787 147.217 184.785 147.211 184.785H118.087C115.821 184.785 113.877 183.013 113.836 180.747C113.793 178.439 115.652 176.555 117.95 176.555H162.879C163.656 176.555 164.405 175.926 164.446 175.149C164.49 174.293 163.809 173.584 162.962 173.584Z" fill="#366AE2"/>
<path d="M147.24 183.525C146.384 182.361 145.004 181.61 143.446 181.61C141.888 181.61 140.508 182.361 139.652 183.525C139.073 184.308 138.734 185.274 138.734 186.322C138.734 188.927 140.841 191.033 143.446 191.033C146.052 191.033 148.164 188.927 148.164 186.322C148.164 185.274 147.819 184.308 147.24 183.525ZM143.446 189.124C141.9 189.124 140.65 187.867 140.65 186.322C140.65 184.782 141.9 183.525 143.446 183.525C144.992 183.525 146.249 184.782 146.249 186.322C146.249 187.867 144.992 189.124 143.446 189.124Z" fill="#11405C"/>
<path d="M146.248 186.322C146.248 187.867 144.992 189.124 143.446 189.124C141.9 189.124 140.649 187.867 140.649 186.322C140.649 184.782 141.9 183.525 143.446 183.525C144.992 183.525 146.248 184.782 146.248 186.322Z" fill="white"/>
<path d="M144.501 186.321C144.501 186.905 144.029 187.379 143.445 187.379C142.863 187.379 142.393 186.905 142.393 186.321C142.393 185.741 142.863 185.267 143.445 185.267C144.029 185.267 144.501 185.741 144.501 186.321Z" fill="#11405C"/>
<path d="M129.975 183.525C129.119 182.361 127.74 181.61 126.181 181.61C124.623 181.61 123.244 182.361 122.387 183.525C121.808 184.308 121.47 185.274 121.47 186.322C121.47 188.927 123.576 191.033 126.181 191.033C128.787 191.033 130.899 188.927 130.899 186.322C130.899 185.274 130.554 184.308 129.975 183.525ZM126.181 189.124C124.635 189.124 123.385 187.867 123.385 186.322C123.385 184.782 124.635 183.525 126.181 183.525C127.727 183.525 128.978 184.782 128.978 186.322C128.978 187.867 127.727 189.124 126.181 189.124Z" fill="#11405C"/>
<path d="M128.977 186.322C128.977 187.867 127.727 189.124 126.181 189.124C124.635 189.124 123.385 187.867 123.385 186.322C123.385 184.782 124.635 183.525 126.181 183.525C127.727 183.525 128.977 184.782 128.977 186.322Z" fill="white"/>
<path d="M127.237 186.321C127.237 186.905 126.764 187.379 126.181 187.379C125.599 187.379 125.128 186.905 125.128 186.321C125.128 185.741 125.599 185.267 126.181 185.267C126.764 185.267 127.237 185.741 127.237 186.321Z" fill="#11405C"/>
<path d="M90.702 132.63C90.681 133.136 91.0807 133.544 91.5754 133.53L102.422 133.226L103.943 133.178C104.28 133.167 104.53 132.764 104.466 132.342L104.194 130.546C104.145 130.221 103.925 129.98 103.666 129.972L91.679 129.477C91.2105 129.458 90.8183 129.822 90.7985 130.3L90.702 132.63Z" fill="#11405C"/>
<path d="M145.58 92.5353L138.988 94.4195L138.895 97.4659L142.488 110.047L143.381 109.795L149.971 107.91L150.863 107.655L147.266 95.0764L145.58 92.5353ZM142.879 95.5693C142.492 95.68 142.09 95.4528 141.978 95.0679C141.869 94.6786 142.09 94.2727 142.481 94.1612C142.866 94.0516 143.275 94.2744 143.387 94.6639C143.494 95.0532 143.27 95.4578 142.879 95.5693Z" fill="#FCAF17"/>
<path d="M143.421 99.1491L143.272 98.6326L144.167 98.3786L144.319 98.8929C145.141 98.8339 145.711 99.3164 145.978 100.263L146.043 100.48L145.004 100.778L144.92 100.49C144.779 99.9898 144.524 99.8563 144.178 99.958C143.829 100.056 143.684 100.303 143.825 100.802C144.235 102.234 146.4 101.692 146.968 103.69C147.236 104.633 147.001 105.36 146.27 105.74L146.417 106.249L145.519 106.506L145.372 105.996C144.539 106.061 143.97 105.567 143.7 104.62L143.566 104.141L144.598 103.849L144.754 104.394C144.899 104.892 145.169 105.012 145.515 104.91C145.865 104.811 146.035 104.569 145.892 104.07C145.482 102.634 143.318 103.178 142.751 101.186C142.481 100.248 142.7 99.5386 143.421 99.1491Z" fill="#CA8C12"/>
<path d="M44.0702 75.0977L40.9531 91.1467C40.9531 91.1467 51.0487 96.2542 51.4165 95.8846C51.7844 95.515 58.1573 80.3388 58.1573 80.3388L44.0702 75.0977Z" fill="#FCB72E"/>
<path d="M49.237 82.1787C49.9389 82.4837 50.2108 83.1112 49.7098 83.8598C49.2162 84.6116 48.4315 84.7801 47.7296 84.475C47.0203 84.1668 46.7484 83.5391 47.242 82.7874C47.7429 82.0389 48.535 81.8737 49.237 82.1787ZM51.5619 83.2768L52.781 83.8066L46.7524 87.3707L45.5332 86.8409L51.5619 83.2768ZM48.1213 83.1695C47.9145 83.4838 47.9505 83.6838 48.1722 83.7802C48.3939 83.8765 48.6312 83.7952 48.838 83.481C49.0448 83.1667 49.0014 82.9635 48.7797 82.8672C48.558 82.7708 48.328 82.8554 48.1213 83.1695ZM50.5994 86.1789C51.3013 86.484 51.5658 87.1083 51.0648 87.8569C50.5712 88.6087 49.7865 88.7772 49.0845 88.4721C48.3826 88.1671 48.1107 87.5395 48.6117 86.791C49.1053 86.0392 49.8974 85.8738 50.5994 86.1789ZM49.4763 87.1666C49.2695 87.4809 49.3055 87.6809 49.5345 87.7804C49.7488 87.8736 49.9861 87.7923 50.1929 87.4782C50.3997 87.1639 50.3563 86.9607 50.1421 86.8675C49.9204 86.7711 49.6831 86.8523 49.4763 87.1666Z" fill="#CA8C12"/>
<path d="M150.217 38.7373L154.881 50.0273C154.881 50.0273 163.279 49.0552 163.356 48.6732C163.433 48.2913 161.158 36.205 161.158 36.205L150.217 38.7373Z" fill="#FCB72E"/>
<path d="M156.355 41.0249C156.918 40.926 157.346 41.2054 157.342 41.8785C157.343 42.5504 156.923 42.9786 156.36 43.0774C155.791 43.1772 155.363 42.8979 155.361 42.2259C155.365 41.5529 155.791 41.1236 156.355 41.0249ZM158.256 40.7523L159.234 40.5806L156.943 45.2851L155.965 45.4568L158.256 40.7523ZM156.067 42.1021C156.067 42.3831 156.172 42.4931 156.35 42.4618C156.528 42.4306 156.642 42.2822 156.642 42.0012C156.642 41.7201 156.531 41.6112 156.353 41.6424C156.175 41.6736 156.066 41.821 156.067 42.1021ZM158.851 42.958C159.414 42.8593 159.836 43.1396 159.832 43.8126C159.834 44.4845 159.414 44.9127 158.851 45.0115C158.288 45.1103 157.86 44.8309 157.864 44.1579C157.862 43.4861 158.288 43.0569 158.851 42.958ZM158.557 44.0363C158.558 44.3174 158.663 44.4273 158.846 44.395C159.018 44.3649 159.133 44.2164 159.132 43.9354C159.132 43.6543 159.021 43.5455 158.849 43.5757C158.671 43.6069 158.557 43.7553 158.557 44.0363Z" fill="#CA8C12"/>
<path d="M90.9393 98.2762L94.3775 107.889L108.677 102.06L110.323 105.361C110.323 105.361 96.9092 115.344 92.914 114.236C90.1695 113.474 87.1328 104.419 87.1328 104.419L90.9393 98.2762Z" fill="#D7A28E"/>
<path d="M93.1734 104.521L93.9056 106.569L91.9386 107.473C91.9386 107.473 89.8396 109.947 89.952 110.926L88.04 106.839C88.04 106.839 91.6714 104.634 93.1734 104.521ZM94.3875 108.142C94.3875 108.142 94.9527 110.586 94.3875 110.822C93.8222 111.058 94.0603 108.499 94.3875 108.142Z" fill="#C18C7C"/>
<path d="M111.644 98.0753C111.917 98.1476 112.003 98.3879 111.896 98.7064C111.669 99.3847 111.375 100.036 111.106 100.724C112.395 100.157 113.794 99.575 115.083 99.0088C115.189 99.1581 115.149 99.3506 115.069 99.4782C114.99 99.6058 114.869 99.702 114.75 99.7938C114.282 100.153 113.792 100.483 113.282 100.781C114.229 100.503 114.902 100.281 115.802 100.057C115.859 100.188 115.844 100.399 115.752 100.508C115.661 100.618 115.43 100.747 115.305 100.816C114.739 101.131 114.275 101.389 113.709 101.704C114.378 101.556 115.094 101.472 115.763 101.324C115.83 101.412 115.806 101.607 115.745 101.699C115.684 101.792 115.592 101.86 115.494 101.912C114.999 102.176 114.317 102.454 113.913 102.649C114.372 102.595 114.853 102.586 115.312 102.531C115.42 102.952 114.86 102.969 114.549 103.133C113.258 103.813 111.906 104.532 110.615 105.212C110.615 105.212 109.639 105.722 108.871 106.045C108.853 106.002 107.4 103.051 107.26 102.812C107.621 102.634 108.376 102.244 108.376 102.244C108.864 100.399 109.851 100.174 111.644 98.0753Z" fill="#D7A28E"/>
<path d="M112.906 100.921C112.919 100.954 113.08 100.919 113.266 100.844C113.452 100.769 113.592 100.682 113.579 100.65C113.566 100.617 113.404 100.652 113.218 100.727C113.033 100.802 112.892 100.889 112.906 100.921ZM113.236 101.902C113.249 101.935 113.411 101.9 113.597 101.826C113.782 101.751 113.923 101.663 113.909 101.631C113.896 101.598 113.735 101.633 113.549 101.708C113.363 101.783 113.223 101.87 113.236 101.902ZM113.468 102.845C113.482 102.878 113.643 102.843 113.829 102.768C114.015 102.693 114.155 102.606 114.142 102.574C114.129 102.541 113.967 102.576 113.781 102.651C113.595 102.726 113.455 102.813 113.468 102.845ZM112.904 103.064C112.937 103.05 112.796 102.642 112.589 102.153C112.383 101.663 112.189 101.278 112.157 101.291C112.125 101.305 112.266 101.713 112.472 102.202C112.679 102.692 112.872 103.077 112.904 103.064ZM110.324 102.596C110.327 102.604 110.36 102.597 110.418 102.577C110.475 102.554 110.562 102.53 110.653 102.466C110.844 102.359 111.082 102.131 111.198 101.805C111.32 101.482 111.298 101.164 111.264 100.951C111.223 100.735 111.164 100.611 111.148 100.617C111.131 100.622 111.158 100.752 111.175 100.962C111.186 101.17 111.191 101.467 111.079 101.761C110.973 102.057 110.771 102.271 110.602 102.392C110.523 102.461 110.445 102.497 110.397 102.532C110.347 102.566 110.321 102.588 110.324 102.596ZM108.501 102.45C108.492 102.45 108.489 102.491 108.491 102.563C108.493 102.635 108.496 102.741 108.521 102.868C108.561 103.124 108.662 103.474 108.844 103.827C109.205 104.541 109.718 104.96 109.737 104.931C109.763 104.907 109.305 104.46 108.957 103.769C108.596 103.083 108.544 102.444 108.501 102.45Z" fill="#C18C7C"/>
<path d="M89.1643 106.839C91.1953 106.839 95.0133 105.72 94.3778 104.379C92.9144 101.291 92.063 96.3467 91.7032 96.1088C91.3433 95.8708 90.0806 95.2219 90.0806 95.2219C90.0806 95.2219 87.8702 100.244 87.7921 100.973C87.714 101.702 89.1643 106.839 89.1643 106.839Z" fill="#FCAF17"/>
<path d="M94.3426 105.046C93.8961 105.825 92.11 106.454 90.54 106.712V99.2624C90.54 99.2624 91.4247 104.493 94.3426 105.046Z" fill="#CA8C12"/>
<path d="M71.3243 139.086C71.3243 139.086 66.0956 152.326 61.9837 153.707C56.1424 155.668 34.5312 155.963 34.5312 155.963C34.5312 155.963 31.358 155.715 33.8169 152.722L57.3815 147.556C57.3815 147.556 59.9643 137.654 61.1567 134.638C62.3467 131.622 71.3243 139.086 71.3243 139.086Z" fill="#D7A28E"/>
<path d="M63.0632 139.321L63.5331 140.829C63.5331 140.829 66.6823 142.131 66.9494 143.138C67.2166 144.144 65.5232 151.024 61.8393 152.772C58.1556 154.521 46.373 155.554 46.373 155.554C46.373 155.554 62.2991 154.218 63.1973 153.923C64.0956 153.628 71.2084 140.929 71.2084 140.929L63.0632 139.321Z" fill="#C18C7C"/>
<path d="M57.6519 147.617C58.1104 147.433 60.206 148.986 60.0793 149.253C59.9526 149.52 57.9657 148.168 57.9657 148.168C57.9657 148.168 59.8851 151.551 58.6848 151.366C57.4846 151.181 56.5427 148.061 57.6519 147.617Z" fill="#C18C7C"/>
<path d="M33.1527 152.818C33.1527 152.818 29.7289 153.258 29.6856 153.952C29.6423 154.645 29.6447 155.195 29.7908 155.205C29.9369 155.214 31.2364 155.295 31.2364 155.295C31.2364 155.295 33.0434 154.085 33.1527 152.818Z" fill="#11405C"/>
<path d="M34.8731 155.985C34.8731 155.985 30.0289 161.947 27.9789 162.263C27.2875 162.37 27.1108 161.05 27.8923 159.174C28.6716 157.297 33.2318 150.855 34.2188 152.589C34.2188 152.589 32.6218 154.387 34.8731 155.985Z" fill="#11405C"/>
<path d="M31.9341 153.62C31.9341 153.62 30.2654 155.762 30.3864 155.327C30.5075 154.892 30.9609 154.013 31.9341 153.62ZM34.5488 155.772C33.217 156.646 30.91 159.641 30.1974 159.689C29.3667 159.748 32.4575 155.292 33.6784 154.221C33.5624 154.739 34.0766 155.605 34.5488 155.772Z" fill="#366AE2"/>
<path d="M83.3126 98.7669C84.1342 103.172 71.4592 105.66 69.7932 96.2873C62.1652 95.572 66.2538 86.9599 71.5852 86.0794C78.9179 77.5019 97.2355 77.0795 91.9811 89.5666C90.3042 93.5519 87.9103 93.8583 83.3546 93.7632L83.3126 98.7669Z" fill="#11405C"/>
<path d="M72.46 136.477C72.46 136.477 78.5367 149.175 80.5125 155.006C80.5125 155.006 82.6164 174.165 81.903 179.818C81.903 179.818 84.2573 185.682 85.5253 181.327C85.8546 176.059 89.1642 155.029 89.1642 155.029L84.0027 135.609L72.46 136.477Z" fill="#D7A28E"/>
<path d="M85.1135 139.753L85.6446 141.787C85.6446 141.787 77.8415 143.101 78.0335 143.732C78.2256 144.363 79.049 150.428 80.5582 151.196C82.0674 151.965 84.7019 151.91 83.9335 152.239C83.165 152.569 81.1618 153.255 81.5735 153.584C81.9851 153.913 87.885 155.477 85.8818 155.807C83.8785 156.136 81.8205 155.505 82.0399 156.355C82.2594 157.206 82.5168 179.339 82.5168 179.339L81.9909 178.613L80.5124 155.006L73.5605 138.436L85.1135 139.753Z" fill="#C18C7C"/>
<path d="M91.3437 99.3812C91.3376 100.576 91.8519 105.534 91.661 106.045C90.8049 108.318 84.5454 110.36 84.1142 115.86C83.6769 121.354 86.3192 140.946 86.3192 140.946C86.3192 140.946 62.7912 143.804 57.3281 136.585C57.3281 136.585 62.9452 121.92 69.708 115.361C76.4707 108.783 75.167 104.1 74.9514 100.146C74.7358 96.2099 81.9766 93.4864 81.9766 93.4864C81.9766 93.4864 87.382 95.9585 89.6505 95.2428C91.3368 94.7107 91.3437 99.3812 91.3437 99.3812Z" fill="#FCAF17"/>
<path d="M76.1604 110.926C78.8908 117.26 80.9441 119.21 82.228 120.267C83.5119 121.324 78.0049 118.304 77.9454 120.267C77.8859 122.231 80.1884 122.588 80.4651 123.778C80.7418 124.968 74.673 122.29 73.364 118.78C72.0551 115.27 73.721 118.958 76.5769 118.78C79.4328 118.601 75.9819 112.533 76.1604 110.926ZM62.5486 135.318C62.0491 133.879 60.8895 129.586 61.6757 129.478C62.4618 129.37 62.5486 135.318 62.5486 135.318ZM59.7666 133.954C60.4695 130.037 62.8402 138.619 62.8402 138.619C62.8402 138.619 58.9983 138.235 59.7666 133.954ZM81.19 107.049C83.55 108.586 86.0118 107.049 86.0118 107.049C86.0118 107.049 85.7236 108.713 88.5061 108.238C88.5061 108.238 86.6235 109.214 85.3612 108.324C85.3612 108.324 84.3915 108.752 83.4219 108.807C82.4523 108.862 81.19 107.049 81.19 107.049Z" fill="#CA8C12"/>
<path d="M81.9916 178.613C81.9916 178.613 79.8815 180.648 80.3394 181.849C80.7973 183.047 78.723 185.946 79.1594 185.773C79.3277 185.71 80.0864 185.971 81.0622 186.366C81.2841 186.456 81.7733 184.848 82.0133 184.95C83.4933 185.576 84.9767 188.09 85.9444 188.56C85.9444 188.56 90.223 190.966 90.5298 189.473C90.8364 187.983 86.5835 185.133 86.4862 184.232C86.3891 183.327 85.5982 180.407 85.5982 180.407C85.5982 180.407 83.6138 181.251 81.9916 178.613Z" fill="#11405C"/>
<path d="M83.685 94.4313C83.7625 93.3953 84.5342 89.9469 84.5977 89.1592C84.6165 88.9249 87.2731 90.8655 87.2731 90.8655C87.2731 90.8655 88.0646 94.6444 88.1184 95.7689C88.3287 95.9708 87.4841 98.9616 86.5004 98.894C85.5168 98.8264 83.6509 94.8883 83.685 94.4313Z" fill="#D7A28E"/>
<path d="M87.3106 91.0733L87.7923 93.5254C87.7923 93.5254 85.0247 90.7343 85.3199 90.1765C85.6152 89.6185 87.3106 91.0733 87.3106 91.0733Z" fill="#C18C7C"/>
<path d="M90.1929 91.0825C87.4091 93.4892 84.6742 89.3972 84.5472 89.4197C84.4201 89.4423 84.31 89.5205 84.1872 89.5599C83.7105 89.713 83.3077 88.9506 83.1194 88.4866C82.5142 86.9945 83.7367 87.1443 83.9888 87.4541C84.1742 87.4144 82.6021 84.7309 86.154 83.3012C87.9675 82.8774 88.6778 83.6975 89.324 84.5164C90.3972 85.8763 91.1466 88.0336 90.8888 89.7466C90.8076 90.287 90.6098 90.7221 90.1929 91.0825Z" fill="#D7A28E"/>
<path d="M83.5503 87.634L83.7034 88.0937L83.3524 88.0938L83.6904 88.2787C83.8181 88.4477 83.7979 88.709 83.7979 88.709C84.0628 88.3371 83.737 87.7987 83.5503 87.634ZM89.6499 83.8763C89.6499 83.8763 89.0835 84.915 88.0638 84.4675C87.0441 84.0201 85.7697 83.2016 85.5739 84.5794C85.498 85.114 84.161 85.1071 84.5152 86.0416C84.8413 86.9019 84.2307 87.7739 83.7346 87.2978C82.9872 86.5804 82.7134 84.8192 84.4712 83.5407C86.2292 82.2623 89.2033 82.7258 89.6499 83.8763Z" fill="#11405C"/>
<path d="M85.3889 86.405C85.5006 86.5174 85.9412 86.2609 86.2233 85.9807C86.5053 85.7004 86.522 85.5028 86.4102 85.3903C86.2984 85.2779 86.1007 85.2932 85.8187 85.5733C85.5365 85.8536 85.2771 86.2925 85.3889 86.405ZM89.4491 85.3738C89.4108 85.5276 88.901 85.5328 88.5152 85.4366C88.1295 85.3403 88.014 85.1791 88.0523 85.0252C88.0907 84.8713 88.2685 84.7833 88.6542 84.8795C89.04 84.9757 89.4876 85.2199 89.4491 85.3738Z" fill="#11405C"/>
<g opacity="0.1">
<path opacity="0.5" d="M86.362 87.708C86.3851 87.8828 86.6378 87.9936 86.9264 87.9555C87.2151 87.9174 87.4303 87.7447 87.4071 87.57C87.384 87.3952 87.1312 87.2843 86.8427 87.3226C86.5542 87.3607 86.3389 87.5332 86.362 87.708Z" fill="#C18C7C"/>
</g>
<g opacity="0.1">
<path opacity="0.5" d="M89.0945 87.1447C89.1176 87.3195 89.3703 87.4303 89.6589 87.3922C89.9476 87.354 90.1628 87.1814 90.1396 87.0067C90.1165 86.8319 89.8638 86.7211 89.5752 86.7593C89.2865 86.7973 89.0713 86.97 89.0945 87.1447Z" fill="#C18C7C"/>
</g>
<path d="M89.2504 88.7984C89.0134 88.8829 88.9628 89.086 88.2437 88.7984C87.5245 88.5108 87.2609 88.284 87.1409 88.661C87.0211 89.0381 88.4354 90.2521 89.2504 89.6527C90.0654 89.0534 89.4101 88.7413 89.2504 88.7984Z" fill="white"/>
<path d="M86.0931 87.4327C86.1473 87.4327 86.2008 87.4077 86.2352 87.3604C86.6533 86.784 87.1192 86.5944 87.1238 86.5925C87.2136 86.5569 87.258 86.4554 87.2228 86.3655C87.1876 86.2755 87.0869 86.2309 86.9967 86.2657C86.9739 86.2746 86.4341 86.489 85.9514 87.1544C85.8945 87.2329 85.912 87.3424 85.9902 87.3993C86.0214 87.4218 86.0574 87.4327 86.0931 87.4327ZM88.3918 87.9611C88.4122 87.9611 88.433 87.9574 88.4534 87.9498C88.721 87.8494 88.7975 87.6929 88.8146 87.5793C88.8463 87.3684 88.7078 87.1467 88.391 86.9018C88.0041 86.6028 87.9465 86.1199 87.946 86.115C87.9353 86.019 87.8474 85.9496 87.7531 85.9598C87.6571 85.9701 87.5874 86.0557 87.5973 86.1516C87.5999 86.1774 87.668 86.7862 88.1764 87.1791C88.42 87.3675 88.4735 87.489 88.4677 87.527C88.4652 87.5439 88.4333 87.5827 88.3301 87.6214C88.2395 87.6555 88.1935 87.7565 88.2274 87.8472C88.254 87.9175 88.3208 87.9611 88.3918 87.9611ZM89.6895 86.4919C89.736 86.4919 89.7822 86.4738 89.8166 86.4376C89.8829 86.3676 89.8809 86.2577 89.8115 86.1909C89.792 86.1722 89.3239 85.7319 88.4769 85.8194C88.3807 85.8293 88.3106 85.9154 88.3205 86.0117C88.3304 86.1081 88.4179 86.1788 88.5128 86.1681C89.1909 86.0988 89.5539 86.4304 89.5691 86.4444C89.603 86.4762 89.6464 86.4919 89.6895 86.4919Z" fill="#11405C"/>
<path opacity="0.5" d="M88.71 90.5453C88.8468 90.5453 88.993 90.5172 89.1476 90.4441C89.2352 90.4028 89.2725 90.2982 89.2311 90.2106C89.1896 90.1231 89.085 90.0857 88.9977 90.1272C88.6877 90.274 88.4359 90.156 88.1697 90.0315L88.1381 90.0168C88.0504 89.9758 87.9461 90.0138 87.9051 90.1016C87.8642 90.1893 87.9022 90.2936 87.9899 90.3346L88.0209 90.3491C88.208 90.4364 88.4405 90.5453 88.71 90.5453Z" fill="#C18C7C"/>
<path d="M82.1227 93.836C82.1227 93.836 82.5618 96.8342 81.7385 97.2734C80.9153 97.7124 82.1227 93.836 82.1227 93.836Z" fill="#CA8C12"/>
<path d="M104.263 127.611C105.335 128.223 106.008 129.193 106.266 129.615C106.703 130.333 107.428 133.32 107.428 133.32C107.428 133.32 107.042 133.489 106.871 133.468C106.594 133.434 106.266 133.029 106.055 132.504C106.133 132.89 106.207 133.613 106.207 133.613C106.207 133.613 105.717 133.688 105.56 133.616C105.349 133.521 105.093 133.137 104.971 132.802C104.997 133.082 105.068 133.552 105.068 133.552C105.068 133.552 104.508 133.576 104.363 133.481C104.087 133.301 103.874 132.777 103.718 132.313C103.784 132.664 103.756 133.286 103.756 133.286C103.756 133.286 103.253 133.207 103.119 133.125C102.598 132.804 102.05 131.014 102.05 131.014C100.286 130.977 99.4638 130.199 98.9403 129.604C98.8156 129.458 101.827 126.79 101.827 126.79C101.827 126.79 103.464 127.153 104.263 127.611Z" fill="#D7A28E"/>
<path d="M105.392 130.525C105.378 130.534 105.425 130.641 105.492 130.816C105.558 130.992 105.646 131.236 105.732 131.51C105.905 132.058 106.025 132.51 106.056 132.504C106.085 132.498 106.013 132.031 105.837 131.477C105.75 131.2 105.65 130.955 105.563 130.784C105.476 130.614 105.404 130.518 105.392 130.525ZM104.379 130.904C104.364 130.911 104.398 131.017 104.451 131.188C104.508 131.376 104.578 131.605 104.655 131.859C104.812 132.383 104.941 132.809 104.971 132.802C105.001 132.795 104.919 132.355 104.761 131.827C104.682 131.563 104.597 131.327 104.524 131.161C104.452 130.995 104.392 130.898 104.379 130.904ZM103.433 131.379C103.403 131.387 103.45 131.646 103.538 131.957C103.626 132.268 103.721 132.513 103.75 132.505C103.78 132.497 103.732 132.238 103.645 131.927C103.557 131.616 103.462 131.371 103.433 131.379Z" fill="#C18C7C"/>
<path d="M86.7828 113.259L82.5587 103.04L76.5449 106.027C78.7655 111.753 81.4858 118.064 81.4858 118.064L99.2568 129.814L101.908 126.809L86.7828 113.259Z" fill="#D7A28E"/>
<path d="M83.2374 104.736L83.679 105.749L78.4995 110.926L77.292 107.929C77.292 107.929 81.1252 106.357 83.2374 104.736ZM86.5799 113.367C86.5799 113.367 85.9533 115.796 85.3432 115.745C84.733 115.693 86.1249 113.533 86.5799 113.367Z" fill="#C18C7C"/>
<path d="M76.5454 108.202C76.8173 108.663 84.1387 104.61 83.6261 103.703C81.4516 99.8571 80.7562 94.0173 80.7562 94.0173C80.7562 94.0173 75.191 95.5537 74.6267 96.8227C73.6344 99.0539 75.862 107.042 76.5454 108.202Z" fill="#FCAF17"/>
<path d="M81.4512 98.8951C81.4512 98.8951 83.447 103.516 83.2519 104.081C83.0569 104.647 77.5699 107.998 76.8261 107.929C76.0824 107.86 74.8721 102.694 74.8721 102.694C74.8721 102.694 75.3386 107.622 76.1121 108.574C76.8855 109.526 83.3411 105.301 83.9658 104.409C84.5906 103.516 81.4512 98.8951 81.4512 98.8951Z" fill="#CA8C12"/>
<defs>
<linearGradient id="paint0_linear_174_93658" x1="118.748" y1="90.2256" x2="118.748" y2="77.5058" gradientUnits="userSpaceOnUse">
<stop offset="0.037" stop-color="#D4C95E"/>
<stop offset="1" stop-color="#FF9444"/>
</linearGradient>
</defs>
</svg>
